<svg xmlns="http://www.w3.org/2000/svg" version="1.1" xmlns:xlink="http://www.w3.org/1999/xlink" xmlns:svgjs="http://svgjs.com/svgjs" width="1440" height="560" preserveAspectRatio="none" viewBox="0 0 1440 560"><g mask="url(&quot;#SvgjsMask1388&quot;)" fill="none"><rect width="1440" height="560" x="0" y="0" fill="url(#SvgjsLinearGradient1389)"></rect><path d="M643 283L642 634" stroke-width="10" stroke="url(#SvgjsLinearGradient1390)" stroke-linecap="round" class="Down"></path><path d="M584 514L583 848" stroke-width="8" stroke="url(#SvgjsLinearGradient1390)" stroke-linecap="round" class="Down"></path><path d="M1006 155L1005 -5" stroke-width="6" stroke="url(#SvgjsLinearGradient1391)" stroke-linecap="round" class="Up"></path><path d="M198 379L197 680" stroke-width="6" stroke="url(#SvgjsLinearGradient1390)" stroke-linecap="round" class="Down"></path><path d="M219 270L218 674" stroke-width="8" stroke="url(#SvgjsLinearGradient1391)" stroke-linecap="round" class="Up"></path><path d="M184 249L183 614" stroke-width="8" stroke="url(#SvgjsLinearGradient1390)" stroke-linecap="round" class="Down"></path><path d="M615 399L614 33" stroke-width="8" stroke="url(#SvgjsLinearGradient1390)" stroke-linecap="round" class="Down"></path><path d="M1194 33L1193 -213" stroke-width="6" stroke="url(#SvgjsLinearGradient1390)" stroke-linecap="round" class="Down"></path><path d="M780 489L779 297" stroke-width="6" stroke="url(#SvgjsLinearGradient1391)" stroke-linecap="round" class="Up"></path><path d="M173 141L172 -44" stroke-width="8" stroke="url(#SvgjsLinearGradient1390)" stroke-linecap="round" class="Down"></path><path d="M1228 456L1227 764" stroke-width="10" stroke="url(#SvgjsLinearGradient1390)" stroke-linecap="round" class="Down"></path><path d="M575 157L574 -51" stroke-width="6" stroke="url(#SvgjsLinearGradient1391)" stroke-linecap="round" class="Up"></path><path d="M737 445L736 771" stroke-width="8" stroke="url(#SvgjsLinearGradient1391)" stroke-linecap="round" class="Up"></path><path d="M535 250L534 436" stroke-width="6" stroke="url(#SvgjsLinearGradient1391)" stroke-linecap="round" class="Up"></path><path d="M125 539L124 204" stroke-width="10" stroke="url(#SvgjsLinearGradient1391)" stroke-linecap="round" class="Up"></path><path d="M1333 204L1332 414" stroke-width="10" stroke="url(#SvgjsLinearGradient1391)" stroke-linecap="round" class="Up"></path><path d="M404 250L403 653" stroke-width="6" stroke="url(#SvgjsLinearGradient1390)" stroke-linecap="round" class="Down"></path><path d="M163 91L162 -87" stroke-width="10" stroke="url(#SvgjsLinearGradient1390)" stroke-linecap="round" class="Down"></path><path d="M433 557L432 338" stroke-width="8" stroke="url(#SvgjsLinearGradient1391)" stroke-linecap="round" class="Up"></path><path d="M48 42L47 -131" stroke-width="6" stroke="url(#SvgjsLinearGradient1391)" stroke-linecap="round" class="Up"></path><path d="M794 164L793 486" stroke-width="8" stroke="url(#SvgjsLinearGradient1391)" stroke-linecap="round" class="Up"></path><path d="M1187 5L1186 386" stroke-width="6" stroke="url(#SvgjsLinearGradient1390)" stroke-linecap="round" class="Down"></path><path d="M713 274L712 -36" stroke-width="10" stroke="url(#SvgjsLinearGradient1390)" stroke-linecap="round" class="Down"></path><path d="M52 554L51 927" stroke-width="6" stroke="url(#SvgjsLinearGradient1391)" stroke-linecap="round" class="Up"></path><path d="M369 162L368 450" stroke-width="6" stroke="url(#SvgjsLinearGradient1390)" stroke-linecap="round" class="Down"></path><path d="M1161 65L1160 -120" stroke-width="8" stroke="url(#SvgjsLinearGradient1391)" stroke-linecap="round" class="Up"></path><path d="M534 134L533 487" stroke-width="10" stroke="url(#SvgjsLinearGradient1391)" stroke-linecap="round" class="Up"></path><path d="M941 506L940 899" stroke-width="6" stroke="url(#SvgjsLinearGradient1391)" stroke-linecap="round" class="Up"></path><path d="M1200 132L1199 -260" stroke-width="10" stroke="url(#SvgjsLinearGradient1391)" stroke-linecap="round" class="Up"></path><path d="M261 455L260 854" stroke-width="6" stroke="url(#SvgjsLinearGradient1391)" stroke-linecap="round" class="Up"></path><path d="M815 446L814 129" stroke-width="6" stroke="url(#SvgjsLinearGradient1391)" stroke-linecap="round" class="Up"></path><path d="M1388 246L1387 526" stroke-width="8" stroke="url(#SvgjsLinearGradient1390)" stroke-linecap="round" class="Down"></path><path d="M1350 177L1349 -86" stroke-width="6" stroke="url(#SvgjsLinearGradient1390)" stroke-linecap="round" class="Down"></path><path d="M529 201L528 406" stroke-width="6" stroke="url(#SvgjsLinearGradient1391)" stroke-linecap="round" class="Up"></path><path d="M1262 252L1261 -31" stroke-width="8" stroke="url(#SvgjsLinearGradient1390)" stroke-linecap="round" class="Down"></path><path d="M348 480L347 865" stroke-width="10" stroke="url(#SvgjsLinearGradient1391)" stroke-linecap="round" class="Up"></path></g><defs><mask id="SvgjsMask1388"><rect width="1440" height="560" fill="#ffffff"></rect></mask><linearGradient x1="50%" y1="0%" x2="50%" y2="100%" gradientUnits="userSpaceOnUse" id="SvgjsLinearGradient1389"><stop stop-color="#0e2a47" offset="0"></stop><stop stop-color="rgba(0, 31, 71, 1)" offset="1"></stop></linearGradient><linearGradient x1="0%" y1="0%" x2="0%" y2="100%" id="SvgjsLinearGradient1390"><stop stop-color="rgba(28, 83, 142, 0)" offset="0"></stop><stop stop-color="#1c538e" offset="1"></stop></linearGradient><linearGradient x1="0%" y1="100%" x2="0%" y2="0%" id="SvgjsLinearGradient1391"><stop stop-color="rgba(28, 83, 142, 0)" offset="0"></stop><stop stop-color="#1c538e" offset="1"></stop></linearGradient></defs></svg>